#N canvas 1912 -8 1920 997 12;
#X obj 110 792 dac~;
#X obj 112 196 osc~;
#X floatatom 112 72 5 0 0 0 - - -;
#X obj 149 231 vsl 15 128 0 1 0 0 empty empty empty 0 -9 0 10 -262144
-1 -1 5900 1;
#X obj 111 393 *~;
#X floatatom 149 368 5 0 0 0 - - -;
#X obj 46 522 vsl 15 128 0 1 0 0 empty empty empty 0 -9 0 10 -262144
-1 -1 600 1;
#X obj 111 754 *~;
#X floatatom 46 659 5 0 0 0 - - -;
#X obj 211 196 osc~;
#X obj 248 231 vsl 15 128 0 1 0 0 empty empty empty 0 -9 0 10 -262144
-1 -1 4953 1;
#X obj 210 393 *~;
#X floatatom 248 368 5 0 0 0 - - -;
#X obj 211 143 * 2;
#X floatatom 211 170 5 0 0 0 - - -;
#X obj 307 198 osc~;
#X obj 344 233 vsl 15 128 0 1 0 0 empty empty empty 0 -9 0 10 -262144
-1 -1 6348 1;
#X obj 306 395 *~;
#X floatatom 344 370 5 0 0 0 - - -;
#X obj 307 145 * 2;
#X floatatom 307 172 5 0 0 0 - - -;
#X obj 406 191 osc~;
#X obj 443 226 vsl 15 128 0 1 0 0 empty empty empty 0 -9 0 10 -262144
-1 -1 6129 1;
#X obj 405 388 *~;
#X floatatom 443 363 5 0 0 0 - - -;
#X obj 406 138 * 2;
#X floatatom 406 165 5 0 0 0 - - -;
#X obj 501 190 osc~;
#X obj 538 225 vsl 15 128 0 1 0 0 empty empty empty 0 -9 0 10 -262144
-1 -1 3261 1;
#X obj 500 387 *~;
#X floatatom 538 362 5 0 0 0 - - -;
#X obj 501 137 * 2;
#X floatatom 501 164 5 0 0 0 - - -;
#X obj 599 187 osc~;
#X obj 636 222 vsl 15 128 0 1 0 0 empty empty empty 0 -9 0 10 -262144
-1 -1 0 1;
#X obj 598 384 *~;
#X floatatom 636 359 5 0 0 0 - - -;
#X obj 599 134 * 2;
#X floatatom 599 161 5 0 0 0 - - -;
#X obj 698 180 osc~;
#X obj 735 215 vsl 15 128 0 1 0 0 empty empty empty 0 -9 0 10 -262144
-1 -1 0 1;
#X obj 697 377 *~;
#X floatatom 735 352 5 0 0 0 - - -;
#X obj 698 127 * 2;
#X floatatom 698 154 5 0 0 0 - - -;
#X obj 793 179 osc~;
#X obj 830 214 vsl 15 128 0 1 0 0 empty empty empty 0 -9 0 10 -262144
-1 -1 0 1;
#X obj 792 376 *~;
#X floatatom 830 351 5 0 0 0 - - -;
#X obj 793 126 * 2;
#X floatatom 793 153 5 0 0 0 - - -;
#X obj 667 582 tgl 15 0 empty empty empty 17 7 0 10 -262144 -1 -1 1
1;
#X obj 667 602 metro 100;
#N canvas 0 50 450 250 (subpatch) 0;
#X array add 100 float 5;
#A 0 -0.00854832 -0.0127295 -0.0161816 -0.0187752 -0.0204432 -0.0211872
-0.021074 -0.0202256 -0.0188102 -0.0170222 -0.0150685 -0.0131497 -0.0114422
-0.0100835 -0.00915959 -0.00869909 -0.00866943 -0.00897908 -0.00948643
-0.0100089 -0.0103414 -0.0102695 -0.00959058 -0.00813322 -0.00576824
-0.00242639 0.00189601 0.00713245 0.013145 0.0197358 0.0266536 0.0336119
0.0403072 0.0464356 0.0517163 0.0559071 0.0588239 0.0603494 0.0604421
0.0591357 0.0565414 0.0528352 0.0482456 0.043038 0.0374959 0.0319013
0.0265169 0.021565 0.0172193 0.0135904 0.0107225 0.00859512 0.00712556
0.00618148 0.00559313 0.00516897 0.00471714 0.00405832 0.00304543 0.00157714
-0.00039434 -0.00285516 -0.00573281 -0.00889693 -0.0121606 -0.0153444
-0.0182037 -0.0205137 -0.0220675 -0.022697 -0.0222854 -0.0207779 -0.0181914
-0.0146116 -0.0101948 -0.00515438 0.000250082 0.00572808 0.0109813
0.0157192 0.0196809 0.0226526 0.0244808 0.0250834 0.024455 0.0226634
0.0198508 0.016216 0.0120042 0.00748872 0.00294987 -0.00134104 -0.0051432
-0.008262 -0.0105582 -0.0119602 -0.0124622 -0.0121241 -0.011064 -0.00944543
;
#X coords 0 1 99 -1 200 140 1 0 0;
#X restore 809 565 graph;
#X obj 667 628 tabwrite~ add;
#X obj 1018 207 hsl 128 15 0 0.2 0 0 empty empty empty -2 -8 0 10 -262144
-1 -1 9200 1;
#X obj 1015 237 osc~;
#X obj 1035 272 tgl 15 0 empty empty empty 17 7 0 10 -262144 -1 -1
1 1;
#X obj 1035 292 metro 10;
#X obj 1016 336 snapshot~;
#X obj 975 379 vsl 15 128 -1 1 0 0 empty empty empty 0 -9 0 10 -262144
-1 -1 9906 1;
#X text 1077 173 0 à 0.2;
#X text 956 334 -1 à 1;
#X obj 1016 366 / 4;
#X obj 1016 395 + 0.25;
#X obj 1231 207 hsl 128 15 0 0.2 0 0 empty empty empty -2 -8 0 10 -262144
-1 -1 4900 1;
#X obj 1228 237 osc~;
#X obj 1248 272 tgl 15 0 empty empty empty 17 7 0 10 -262144 -1 -1
1 1;
#X obj 1248 292 metro 10;
#X obj 1229 336 snapshot~;
#X obj 1188 379 vsl 15 128 -1 1 0 0 empty empty empty 0 -9 0 10 -262144
-1 -1 12696 1;
#X text 1290 173 0 à 0.2;
#X text 1169 334 -1 à 1;
#X obj 1229 366 / 4;
#X obj 1229 395 + 0.25;
#X obj 1418 209 hsl 128 15 0 0.2 0 0 empty empty empty -2 -8 0 10 -262144
-1 -1 3900 1;
#X obj 1415 239 osc~;
#X obj 1435 274 tgl 15 0 empty empty empty 17 7 0 10 -262144 -1 -1
1 1;
#X obj 1435 294 metro 10;
#X obj 1416 338 snapshot~;
#X obj 1375 381 vsl 15 128 -1 1 0 0 empty empty empty 0 -9 0 10 -262144
-1 -1 12258 1;
#X text 1477 175 0 à 0.2;
#X text 1356 336 -1 à 1;
#X obj 1416 368 / 4;
#X obj 1416 397 + 0.25;
#X obj 1612 205 hsl 128 15 0 0.2 0 0 empty empty empty -2 -8 0 10 -262144
-1 -1 2500 1;
#X obj 1609 235 osc~;
#X obj 1629 270 tgl 15 0 empty empty empty 17 7 0 10 -262144 -1 -1
1 1;
#X obj 1629 290 metro 10;
#X obj 1610 334 snapshot~;
#X obj 1569 377 vsl 15 128 -1 1 0 0 empty empty empty 0 -9 0 10 -262144
-1 -1 6521 1;
#X text 1671 171 0 à 0.2;
#X text 1550 332 -1 à 1;
#X obj 1610 364 / 4;
#X obj 1610 393 + 0.25;
#X connect 1 0 4 0;
#X connect 2 0 1 0;
#X connect 2 0 13 0;
#X connect 3 0 5 0;
#X connect 4 0 7 0;
#X connect 5 0 4 1;
#X connect 6 0 8 0;
#X connect 7 0 0 1;
#X connect 7 0 0 0;
#X connect 7 0 54 0;
#X connect 8 0 7 1;
#X connect 9 0 11 0;
#X connect 10 0 12 0;
#X connect 11 0 7 0;
#X connect 12 0 11 1;
#X connect 13 0 14 0;
#X connect 13 0 19 0;
#X connect 14 0 9 0;
#X connect 15 0 17 0;
#X connect 16 0 18 0;
#X connect 17 0 7 0;
#X connect 18 0 17 1;
#X connect 19 0 20 0;
#X connect 19 0 25 0;
#X connect 20 0 15 0;
#X connect 21 0 23 0;
#X connect 22 0 24 0;
#X connect 23 0 7 0;
#X connect 24 0 23 1;
#X connect 25 0 26 0;
#X connect 25 0 31 0;
#X connect 26 0 21 0;
#X connect 27 0 29 0;
#X connect 28 0 30 0;
#X connect 29 0 7 0;
#X connect 30 0 29 1;
#X connect 31 0 32 0;
#X connect 31 0 37 0;
#X connect 32 0 27 0;
#X connect 33 0 35 0;
#X connect 34 0 36 0;
#X connect 35 0 7 0;
#X connect 36 0 35 1;
#X connect 37 0 38 0;
#X connect 37 0 43 0;
#X connect 38 0 33 0;
#X connect 39 0 41 0;
#X connect 40 0 42 0;
#X connect 41 0 7 0;
#X connect 42 0 41 1;
#X connect 43 0 44 0;
#X connect 43 0 49 0;
#X connect 44 0 39 0;
#X connect 45 0 47 0;
#X connect 46 0 48 0;
#X connect 47 0 7 0;
#X connect 48 0 47 1;
#X connect 49 0 50 0;
#X connect 50 0 45 0;
#X connect 51 0 52 0;
#X connect 52 0 54 0;
#X connect 55 0 56 0;
#X connect 56 0 59 0;
#X connect 57 0 58 0;
#X connect 58 0 59 0;
#X connect 59 0 60 0;
#X connect 59 0 63 0;
#X connect 63 0 64 0;
#X connect 64 0 10 0;
#X connect 65 0 66 0;
#X connect 66 0 69 0;
#X connect 67 0 68 0;
#X connect 68 0 69 0;
#X connect 69 0 70 0;
#X connect 69 0 73 0;
#X connect 73 0 74 0;
#X connect 74 0 16 0;
#X connect 75 0 76 0;
#X connect 76 0 79 0;
#X connect 77 0 78 0;
#X connect 78 0 79 0;
#X connect 79 0 80 0;
#X connect 79 0 83 0;
#X connect 83 0 84 0;
#X connect 84 0 22 0;
#X connect 85 0 86 0;
#X connect 86 0 89 0;
#X connect 87 0 88 0;
#X connect 88 0 89 0;
#X connect 89 0 90 0;
#X connect 89 0 93 0;
#X connect 93 0 94 0;
#X connect 94 0 28 0;
